Coordinates
version=1
nRows=54
nColumns=12
inDegrees=yes

Units are S.I. units (second, meters, Newtons, ...)
Angles are in degrees

endheader
time	SC_y	SC_z	SC_x	AC_y	AC_z	AC_x	GH_y	GH_z	GH_yy	EL_x	PS_y
       0.0              -15.83            3.4          48.19          65.71         -11.51         -16.87         -109.4          13.18          148.2          42.18          145.1
   0.01807              -15.83          3.399          48.19          65.71          -11.5         -16.87         -109.3          13.18          148.2          42.18          145.1
   0.03614              -15.83          3.398          48.19          65.71          -11.5         -16.87         -109.3          13.19          148.2          42.18          145.1
   0.05422              -15.83          3.396          48.18          65.71          -11.5         -16.87         -109.2          13.19          148.1          42.18          145.1
   0.07229              -15.83          3.395          48.18          65.71          -11.5         -16.87         -109.2          13.19          148.1          42.19          145.1
   0.09036              -15.83          3.394          48.17          65.71          -11.5         -16.87         -109.1          13.19          148.1          42.19          145.1
    0.1084              -15.83          3.392          48.17          65.71          -11.5         -16.87         -109.1           13.2          148.1          42.19          145.1
    0.1265              -15.84          3.391          48.17          65.71         -11.49         -16.87         -109.0           13.2          148.0          42.19          145.1
    0.1446              -15.84          3.389          48.16          65.71         -11.49         -16.87         -109.0           13.2          148.0           42.2          145.1
    0.1627              -15.84          3.387          48.15          65.72         -11.49         -16.87         -108.9          13.21          148.0           42.2          145.0
    0.1807              -15.84          3.385          48.15          65.72         -11.49         -16.87         -108.9          13.21          147.9           42.2          145.0
    0.1988              -15.84          3.383          48.14          65.72         -11.48         -16.87         -108.8          13.22          147.9          42.21          145.0
    0.2169              -15.84          3.381          48.14          65.72         -11.48         -16.87         -108.7          13.22          147.9          42.21          145.0
    0.2349              -15.85          3.379          48.13          65.72         -11.48         -16.87         -108.6          13.22          147.8          42.21          145.0
     0.253              -15.85          3.376          48.12          65.72         -11.47         -16.87         -108.5          13.23          147.8          42.22          144.9
    0.2711              -15.85          3.373          48.11          65.72         -11.47         -16.87         -108.4          13.24          147.7          42.22          144.9
    0.2892              -15.85           3.37           48.1          65.72         -11.47         -16.87         -108.3          13.24          147.7          42.23          144.9
    0.3072              -15.86          3.367          48.09          65.72         -11.46         -16.87         -108.2          13.25          147.6          42.24          144.9
    0.3253              -15.86          3.363          48.08          65.72         -11.46         -16.87         -108.1          13.26          147.5          42.24          144.8
    0.3434              -15.86          3.359          48.07          65.72         -11.45         -16.87         -107.9          13.26          147.5          42.25          144.8
    0.3614              -15.87          3.355          48.06          65.73         -11.45         -16.87         -107.8          13.27          147.4          42.26          144.7
    0.3795              -15.87           3.35          48.05          65.73         -11.44         -16.87         -107.6          13.28          147.3          42.27          144.7
    0.3976              -15.87          3.344          48.03          65.73         -11.43         -16.87         -107.4          13.29          147.2          42.28          144.7
    0.4157              -15.88          3.338          48.01          65.73         -11.42         -16.87         -107.2          13.31          147.1          42.29          144.6
    0.4337              -15.88          3.332          47.99          65.73         -11.42         -16.88         -107.0          13.32          147.0           42.3          144.5
    0.4518              -15.89          3.324          47.97          65.74         -11.41         -16.88         -106.7          13.34          146.8          42.31          144.5
    0.4699               -15.9          3.316          47.95          65.74         -11.39         -16.88         -106.4          13.35          146.7          42.33          144.4
     0.488              -15.91          3.307          47.92          65.74         -11.38         -16.88         -106.1          13.37          146.5          42.34          144.3
     0.506              -15.91          3.296          47.89          65.75         -11.37         -16.88         -105.7          13.39          146.3          42.36          144.2
    0.5241              -15.92          3.284          47.85          65.75         -11.35         -16.88         -105.3          13.42          146.1          42.38          144.1
    0.5422              -15.94          3.271          47.81          65.75         -11.33         -16.88         -104.8          13.44          145.8          42.41          144.0
    0.5602              -15.95          3.255          47.77          65.76         -11.31         -16.88         -104.3          13.48          145.5          42.44          143.9
    0.5783              -15.96          3.237          47.72          65.77         -11.29         -16.88         -103.7          13.51          145.2          42.47          143.7
    0.5964              -15.98          3.216          47.66          65.77         -11.26         -16.89         -102.9          13.56          144.8          42.51          143.5
    0.6145               -16.0          3.192          47.58          65.78         -11.23         -16.89         -102.1          13.61          144.4          42.55          143.3
    0.6325              -16.03          3.163           47.5          65.79         -11.19         -16.89         -101.0          13.66          143.8           42.6          143.1
    0.6506              -16.06          3.128           47.4           65.8         -11.14          -16.9         -99.84          13.73          143.2          42.66          142.8
    0.6687              -16.09          3.087          47.28          65.82         -11.09          -16.9         -98.39          13.82          142.4          42.74          142.4
    0.6867              -16.13          3.037          47.13          65.83         -11.02          -16.9         -96.64          13.92          141.5          42.83          142.0
    0.7048              -16.18          2.976          46.96          65.85         -10.94         -16.91         -94.51          14.04          140.4          42.94          141.4
    0.7229              -16.25          2.901          46.74          65.88         -10.84         -16.92         -91.87           14.2          139.0          43.07          140.8
     0.741              -16.33          2.807          46.46          65.91         -10.72         -16.93         -88.59          14.39          137.3          43.24          139.9
     0.759              -16.43          2.689          46.12          65.95         -10.56         -16.94         -84.45          14.63          135.1          43.45          138.9
    0.7771              -16.55          2.539          45.68           66.0         -10.36         -16.95         -79.19          14.93          132.4          43.72          137.6
    0.7952              -16.72          2.347          45.12          66.06          -10.1         -16.97         -72.45          15.33          128.8          44.07          135.9
    0.8133              -16.92          2.101           44.4          66.15         -9.773         -16.99         -63.81          15.83          124.3          44.51          133.8
    0.8313              -17.19          1.786          43.48          66.25         -9.352         -17.02         -52.77          16.47          118.5          45.08          131.0
    0.8494              -17.52           1.39          42.33          66.39         -8.824         -17.06         -38.88          17.28          111.2          45.79          127.5
    0.8675              -17.93         0.9075          40.92          66.55          -8.18         -17.11         -21.97          18.26          102.3          46.65          123.3
    0.8855               -18.4         0.3483          39.29          66.74         -7.434         -17.16         -2.356           19.4          92.04          47.66          118.4
    0.9036              -18.91        -0.2573          37.52          66.94         -6.626         -17.22          18.88          20.63          80.89          48.75          113.1
    0.9217              -19.42        -0.8628          35.76          67.14         -5.818         -17.28          40.11          21.86          69.74          49.83          107.8
    0.9398               -19.9         -1.422          34.13          67.33         -5.071         -17.33          59.72           23.0          59.45          50.84          102.8
    0.9578               -20.3         -1.905          32.72          67.49         -4.428         -17.38          76.64          23.99          50.57           51.7          98.62
